<svg width="20" height="20" viewBox="0 0 20 20" fill="none" xmlns="http://www.w3.org/2000/svg">
<g id="Frame" clip-path="url(#clip0_27_391)">
<g id="Group">
<path id="Vector" d="M9.11672 17.2642C9.3511 17.4983 9.6688 17.6298 10.0001 17.6298C10.3313 17.6298 10.649 17.4983 10.8834 17.2642L15.5992 12.5509C15.8337 12.3164 15.9655 11.9983 15.9655 11.6667C15.9655 11.3351 15.8337 11.017 15.5992 10.7825C15.3647 10.548 15.0467 10.4163 14.7151 10.4163C14.3834 10.4163 14.0654 10.548 13.8309 10.7825L11.2501 13.3625L11.2501 3.75003C11.2501 3.41851 11.1184 3.10057 10.8839 2.86615C10.6495 2.63172 10.3316 2.50003 10.0001 2.50003C9.66853 2.50003 9.35059 2.63172 9.11617 2.86615C8.88175 3.10057 8.75005 3.41851 8.75005 3.75003L8.75005 13.3625L6.17005 10.7825C6.05394 10.6664 5.9161 10.5743 5.76439 10.5115C5.61269 10.4486 5.45009 10.4163 5.28589 10.4163C5.12168 10.4163 4.95908 10.4486 4.80738 10.5115C4.65567 10.5743 4.51783 10.6664 4.40172 10.7825C4.28561 10.8986 4.19351 11.0365 4.13067 11.1882C4.06783 11.3399 4.03549 11.5025 4.03549 11.6667C4.03549 11.8309 4.06783 11.9935 4.13067 12.1452C4.19351 12.2969 4.28561 12.4348 4.40172 12.5509L9.11672 17.2642Z" fill="white"/>
</g>
</g>
<defs>
<clipPath id="clip0_27_391">
<rect width="20" height="20" fill="white" transform="matrix(-1 0 0 -1 20 20)"/>
</clipPath>
</defs>
</svg>
