<?xml version="1.0" standalone="no"?>
<!DOCTYPE svg PUBLIC "-//W3C//DTD SVG 20010904//EN"
 "http://www.w3.org/TR/2001/REC-SVG-20010904/DTD/svg10.dtd">
<svg version="1.0" xmlns="http://www.w3.org/2000/svg"
 width="222.000000pt" height="227.000000pt" viewBox="0 0 222.000000 227.000000"
 preserveAspectRatio="xMidYMid meet">

<g transform="translate(0.000000,227.000000) scale(0.100000,-0.100000)"
fill="#000000" stroke="none">
<path d="M1530 1595 l0 -374 -150 -3 -150 -3 240 -439 c131 -242 243 -443 248
-448 7 -7 492 866 492 886 0 3 -67 6 -150 6 l-150 0 0 375 0 375 -190 0 -190
0 0 -375z"/>
<path d="M271 1538 c-123 -227 -233 -428 -243 -445 l-19 -32 148 -3 148 -3 3
-377 2 -378 190 0 190 0 0 375 0 375 150 0 c83 0 150 2 150 3 0 3 -161 304
-399 745 -46 83 -86 152 -89 152 -4 0 -108 -186 -231 -412z"/>
</g>
</svg>
