<?xml version="1.0" encoding="UTF-8"?>
<!DOCTYPE svg PUBLIC "-//W3C//DTD SVG 1.1//EN" "http://www.w3.org/Graphics/SVG/1.1/DTD/svg11.dtd">
<svg xmlns="http://www.w3.org/2000/svg" version="1.1" width="222px" height="227px" style="shape-rendering:geometricPrecision; text-rendering:geometricPrecision; image-rendering:optimizeQuality; fill-rule:evenodd; clip-rule:evenodd" xmlns:xlink="http://www.w3.org/1999/xlink">
<g><path style="opacity:1" fill="#f4f4f4" d="M -0.5,-0.5 C 73.5,-0.5 147.5,-0.5 221.5,-0.5C 221.5,75.1667 221.5,150.833 221.5,226.5C 147.5,226.5 73.5,226.5 -0.5,226.5C -0.5,150.833 -0.5,75.1667 -0.5,-0.5 Z"/></g>
<g><path style="opacity:1" fill="#010101" d="M 123.5,106.5 C 133.167,105.833 142.833,105.167 152.5,104.5C 152.5,79.5 152.5,54.5 152.5,29.5C 165.167,29.5 177.833,29.5 190.5,29.5C 190.5,54.5 190.5,79.5 190.5,104.5C 200.522,104.168 210.522,104.501 220.5,105.5C 204.333,135.167 188.167,164.833 172,194.5C 155.567,165.3 139.401,135.967 123.5,106.5 Z"/></g>
<g><path style="opacity:1" fill="#000000" d="M 30.5,196.5 C 30.5,171.167 30.5,145.833 30.5,120.5C 20.5,120.5 10.5,120.5 0.5,120.5C 16.5672,90.6999 32.9006,61.0332 49.5,31.5C 66.0872,61.0061 82.4205,90.6727 98.5,120.5C 88.5222,121.499 78.5222,121.832 68.5,121.5C 68.5,146.5 68.5,171.5 68.5,196.5C 55.8333,196.5 43.1667,196.5 30.5,196.5 Z"/></g>
<g><path style="opacity:1" fill="#515151" d="M 152.5,104.5 C 142.833,105.167 133.167,105.833 123.5,106.5C 122.957,106.44 122.624,106.107 122.5,105.5C 132.478,104.501 142.478,104.168 152.5,104.5 Z"/></g>
<g><path style="opacity:1" fill="#c5c5c5" d="M 0.5,120.5 C 10.5,120.5 20.5,120.5 30.5,120.5C 30.5,145.833 30.5,171.167 30.5,196.5C 29.5023,171.672 29.169,146.672 29.5,121.5C 19.6522,121.827 9.98556,121.494 0.5,120.5 Z"/></g>
</svg>
