<?xml version="1.0" standalone="no"?>
<!DOCTYPE svg PUBLIC "-//W3C//DTD SVG 20010904//EN"
 "http://www.w3.org/TR/2001/REC-SVG-20010904/DTD/svg10.dtd">
<svg version="1.0" xmlns="http://www.w3.org/2000/svg"
 width="512.000000pt" height="512.000000pt" viewBox="0 0 512.000000 512.000000"
 preserveAspectRatio="xMidYMid meet">

<g transform="translate(0.000000,512.000000) scale(0.100000,-0.100000)"
fill="#000000" stroke="none">
<path d="M0 2560 l0 -2560 1080 0 1080 0 0 905 0 905 -325 0 -325 0 0 375 0
375 325 0 325 0 0 359 c0 451 13 536 111 736 120 247 374 418 674 456 156 20
644 -4 746 -36 19 -6 19 -18 17 -323 l-3 -317 -235 -5 c-230 -5 -236 -6 -293
-32 -102 -48 -151 -101 -189 -205 -20 -53 -22 -82 -26 -345 l-4 -288 357 0
358 0 -7 -52 c-7 -56 -42 -287 -82 -531 -13 -81 -26 -152 -29 -158 -4 -5 -127
-9 -301 -9 l-294 0 0 -905 0 -905 1080 0 1080 0 0 2560 0 2560 -2560 0 -2560
0 0 -2560z"/>
</g>
</svg>
